<?xml version="1.0" encoding="utf-8"?>
<!-- Generator: Adobe Illustrator 19.0.0, SVG Export Plug-In . SVG Version: 6.00 Build 0)  -->
<svg version="1.1" id="Layer_1" xmlns="http://www.w3.org/2000/svg" xmlns:xlink="http://www.w3.org/1999/xlink" x="0px" y="0px"
	 viewBox="-451.6 245.7 57.2 70.8" style="enable-background:new -451.6 245.7 57.2 70.8;" xml:space="preserve">
<style type="text/css">
	.st0{fill:#FFFDFD;stroke:#595959;stroke-width:2;stroke-miterlimit:10;}
	.st1{fill:none;stroke:#595959;stroke-width:2;stroke-miterlimit:10;}
</style>
<g id="XMLID_139_">
	<path id="XMLID_142_" class="st0" d="M-395.6,312.7l-20.3-41.7c-0.1-0.1-0.1-0.3-0.1-0.4v-20.7c0-0.5-0.4-1-1-1h-12.3
		c-0.5,0-1,0.4-1,1v20.7c0,0.1,0,0.3-0.1,0.4l-20,41.8c-0.6,1.3,0.3,2.7,1.7,2.7h51.3C-395.9,315.5-395,314-395.6,312.7z"/>
	<path id="XMLID_141_" class="st0" d="M-415.6,251.5h-15.1c-0.6,0-1-0.4-1-1v-2.8c0-0.6,0.4-1,1-1h15.1c0.6,0,1,0.4,1,1v2.8
		C-414.6,251-415.1,251.5-415.6,251.5z"/>
	<g id="XMLID_140_">
		<path id="XMLID_152_" class="st1" d="M-438,286.9c5.1,0,5.1,2,10.3,2c5.1,0,5.1-2,10.3-2c5.2,0,5.1,2,10.3,2"/>
	</g>
</g>
</svg>
