<?xml version="1.0" encoding="utf-8"?>
<!-- Generator: Adobe Illustrator 19.0.0, SVG Export Plug-In . SVG Version: 6.00 Build 0)  -->
<svg version="1.1" id="Layer_1" xmlns="http://www.w3.org/2000/svg" xmlns:xlink="http://www.w3.org/1999/xlink" x="0px" y="0px"
	 viewBox="-894.5 496.9 64.6 65.3" style="enable-background:new -894.5 496.9 64.6 65.3;" xml:space="preserve">
<style type="text/css">
	.st0{fill:#FFFFFF;stroke:#595959;stroke-width:2;stroke-miterlimit:10;}
	.st1{fill:none;stroke:#595959;stroke-width:2;stroke-linecap:round;stroke-miterlimit:10;}
</style>
<path id="XMLID_99_" class="st0" d="M-831.9,561.2h-30.3v-62.3c0-0.6,0.4-1,1-1h29.3c0.6,0,1,0.4,1,1v61.3
	C-830.9,560.7-831.3,561.2-831.9,561.2z"/>
<path id="XMLID_98_" class="st0" d="M-862.2,561.2h-30.3c-0.6,0-1-0.4-1-1v-36.8c0-0.4,0.3-0.8,0.7-1l30.6-9.8
	C-862.2,512.6-862.2,561.2-862.2,561.2z"/>
<g id="XMLID_94_">
	<line id="XMLID_97_" class="st1" x1="-856.3" y1="517.5" x2="-856.3" y2="521.5"/>
	<line id="XMLID_96_" class="st1" x1="-846.3" y1="517.5" x2="-846.3" y2="521.5"/>
	<line id="XMLID_95_" class="st1" x1="-837.3" y1="517.5" x2="-837.3" y2="521.5"/>
</g>
<g id="XMLID_90_">
	<line id="XMLID_93_" class="st1" x1="-856.3" y1="505.5" x2="-856.3" y2="509.5"/>
	<line id="XMLID_92_" class="st1" x1="-846.3" y1="505.5" x2="-846.3" y2="509.5"/>
	<line id="XMLID_91_" class="st1" x1="-837.3" y1="505.5" x2="-837.3" y2="509.5"/>
</g>
<g id="XMLID_86_">
	<line id="XMLID_89_" class="st1" x1="-856.3" y1="529.5" x2="-856.3" y2="533.5"/>
	<line id="XMLID_88_" class="st1" x1="-846.3" y1="529.5" x2="-846.3" y2="533.5"/>
	<line id="XMLID_87_" class="st1" x1="-837.3" y1="529.5" x2="-837.3" y2="533.5"/>
</g>
<g id="XMLID_82_">
	<line id="XMLID_85_" class="st1" x1="-887.3" y1="529.5" x2="-887.3" y2="533.5"/>
	<line id="XMLID_84_" class="st1" x1="-877.3" y1="529.5" x2="-877.3" y2="533.5"/>
	<line id="XMLID_83_" class="st1" x1="-868.3" y1="529.5" x2="-868.3" y2="533.5"/>
</g>
<g id="XMLID_50_">
	<line id="XMLID_53_" class="st1" x1="-856.3" y1="540.5" x2="-856.3" y2="544.5"/>
	<line id="XMLID_52_" class="st1" x1="-846.3" y1="540.5" x2="-846.3" y2="544.5"/>
	<line id="XMLID_51_" class="st1" x1="-837.3" y1="540.5" x2="-837.3" y2="544.5"/>
</g>
<g id="XMLID_49_">
	<line id="XMLID_62_" class="st1" x1="-856.3" y1="552.5" x2="-856.3" y2="556.5"/>
	<line id="XMLID_61_" class="st1" x1="-846.3" y1="552.5" x2="-846.3" y2="556.5"/>
	<line id="XMLID_60_" class="st1" x1="-837.3" y1="552.5" x2="-837.3" y2="556.5"/>
</g>
<g id="XMLID_67_">
	<line id="XMLID_48_" class="st1" x1="-887.3" y1="540.5" x2="-887.3" y2="544.5"/>
	<line id="XMLID_47_" class="st1" x1="-877.3" y1="540.5" x2="-877.3" y2="544.5"/>
	<line id="XMLID_68_" class="st1" x1="-868.3" y1="540.5" x2="-868.3" y2="544.5"/>
</g>
<g id="XMLID_63_">
	<line id="XMLID_66_" class="st1" x1="-887.3" y1="552.5" x2="-887.3" y2="556.5"/>
	<line id="XMLID_65_" class="st1" x1="-877.3" y1="552.5" x2="-877.3" y2="556.5"/>
	<line id="XMLID_64_" class="st1" x1="-868.3" y1="552.5" x2="-868.3" y2="556.5"/>
</g>
</svg>
