<?xml version="1.0" encoding="utf-8"?>
<!-- Generator: Adobe Illustrator 19.0.0, SVG Export Plug-In . SVG Version: 6.00 Build 0)  -->
<svg version="1.1" id="Layer_1" xmlns="http://www.w3.org/2000/svg" xmlns:xlink="http://www.w3.org/1999/xlink" x="0px" y="0px"
	 viewBox="-872.5 488.6 87.8 73.5" style="enable-background:new -872.5 488.6 87.8 73.5;" xml:space="preserve">
<style type="text/css">
	.st0{fill:#FFFFFF;stroke:#595959;stroke-width:2;stroke-miterlimit:10;}
</style>
<g id="XMLID_83_">
	<path id="XMLID_94_" class="st0" d="M-830.3,543v-5.5c0-0.3-0.2-0.5-0.4-0.5l-6.2-1c-0.2,0-0.3-0.2-0.4-0.3
		c-0.2-0.7-0.5-1.3-0.8-1.9c-0.1-0.2-0.1-0.4,0-0.5l3-4.1c0.1-0.2,0.1-0.5-0.1-0.7l-3.7-3.7c-0.2-0.2-0.5-0.2-0.7-0.1l-4.1,3
		c-0.2,0.1-0.4,0.1-0.5,0c-0.6-0.3-1.2-0.5-1.8-0.7c-0.2-0.1-0.3-0.2-0.3-0.4l-1-6.2c0-0.2-0.3-0.4-0.5-0.4h-5.5
		c-0.3,0-0.5,0.2-0.5,0.4l-1,6.2c0,0.2-0.2,0.3-0.3,0.4c-0.7,0.2-1.4,0.5-2.1,0.9c-0.2,0.1-0.4,0.1-0.5,0l-4.3-3.1
		c-0.2-0.1-0.5-0.1-0.7,0.1l-3.7,3.7c-0.2,0.2-0.2,0.5-0.1,0.7l3.2,4.4c0.1,0.2,0.1,0.4,0,0.5c-0.3,0.5-0.6,1.1-0.9,1.6
		c-0.1,0.2-0.2,0.3-0.4,0.3l-6.5,1c-0.2,0-0.4,0.3-0.4,0.5v5.5c0,0.3,0.2,0.5,0.4,0.5l6.5,1.1c0.2,0,0.3,0.2,0.4,0.3
		c0.2,0.6,0.5,1.2,0.8,1.7c0.1,0.2,0.1,0.4,0,0.5l-3.2,4.5c-0.1,0.2-0.1,0.5,0.1,0.7l3.7,3.7c0.2,0.1,0.5,0.1,0.7,0l4.5-3.2
		c0.2-0.1,0.4-0.1,0.5,0c0.6,0.3,1.2,0.7,1.8,0.9c0.2,0.1,0.3,0.2,0.3,0.4l1.1,6.5c0,0.2,0.3,0.4,0.5,0.4h5.5c0.3,0,0.5-0.2,0.5-0.4
		l1.1-6.5c0-0.2,0.2-0.3,0.3-0.4c0.6-0.2,1.1-0.5,1.6-0.7c0.2-0.1,0.4-0.1,0.5,0l4.4,3.1c0.2,0.1,0.5,0.1,0.7-0.1l3.7-3.7
		c0.2-0.2,0.2-0.5,0.1-0.7l-3-4.2c-0.1-0.2-0.1-0.4,0-0.5c0.3-0.6,0.6-1.3,0.8-2c0.1-0.2,0.2-0.3,0.4-0.3l6.2-1.1
		C-830.5,543.5-830.3,543.2-830.3,543z M-854.5,536.1c5.9-4.4,12.4,2.2,8.1,8.1l-0.1,0.1c-5.9,4.4-12.4-2.2-8.1-8.1
		C-854.6,536.2-854.6,536.2-854.5,536.1z"/>
	<path id="XMLID_47_" class="st0" d="M-785.7,519.4v-7c0-0.3-0.2-0.6-0.6-0.7l-7.9-1.3c-0.2,0-0.4-0.2-0.5-0.4
		c-0.3-0.9-0.6-1.7-1-2.5c-0.1-0.2-0.1-0.5,0-0.7l3.8-5.3c0.2-0.3,0.2-0.6-0.1-0.9l-4.7-4.7c-0.2-0.2-0.6-0.3-0.9-0.1l-5.3,3.8
		c-0.2,0.1-0.5,0.2-0.7,0c-0.8-0.4-1.5-0.7-2.3-0.9c-0.2-0.1-0.4-0.3-0.4-0.5l-1.3-8c-0.1-0.3-0.3-0.6-0.7-0.6h-7
		c-0.3,0-0.6,0.2-0.7,0.6l-1.3,8c0,0.2-0.2,0.4-0.4,0.5c-0.9,0.3-1.8,0.7-2.6,1.1c-0.2,0.1-0.5,0.1-0.7,0l-5.5-4
		c-0.3-0.2-0.6-0.2-0.9,0.1l-4.7,4.7c-0.2,0.2-0.3,0.6-0.1,0.9l4.1,5.7c0.1,0.2,0.2,0.5,0,0.7c-0.4,0.7-0.8,1.4-1.1,2.1
		c-0.1,0.2-0.3,0.4-0.5,0.4l-8.4,1.3c-0.3,0.1-0.6,0.3-0.6,0.7v7c0,0.3,0.2,0.6,0.6,0.7l8.4,1.4c0.2,0,0.4,0.2,0.5,0.4
		c0.3,0.8,0.7,1.5,1.1,2.2c0.1,0.2,0.1,0.5,0,0.7l-4.1,5.8c-0.2,0.3-0.2,0.6,0.1,0.9l4.8,4.7c0.2,0.2,0.6,0.3,0.9,0.1l5.8-4.2
		c0.2-0.1,0.5-0.2,0.7,0c0.8,0.4,1.6,0.9,2.4,1.2c0.2,0.1,0.4,0.3,0.4,0.5l1.4,8.4c0.1,0.3,0.3,0.6,0.7,0.6h7c0.3,0,0.6-0.2,0.7-0.6
		l1.4-8.4c0-0.2,0.2-0.4,0.4-0.5c0.7-0.3,1.4-0.6,2.1-1c0.2-0.1,0.5-0.1,0.7,0l5.6,4c0.3,0.2,0.6,0.2,0.9-0.1l4.7-4.7
		c0.2-0.2,0.3-0.6,0.1-0.9l-4.4-5.4c-0.1-0.2-0.2-0.5,0-0.7c0.4-0.8,0.7-1.7,1-2.6c0.1-0.2,0.3-0.4,0.5-0.4l8-1.4
		C-786,520-785.7,519.8-785.7,519.4z M-816.9,510.6c7.5-5.6,16,2.8,10.4,10.4c0,0.1-0.1,0.1-0.2,0.2c-7.5,5.6-16-2.8-10.4-10.4
		C-817,510.7-817,510.6-816.9,510.6z"/>
</g>
</svg>
