<?xml version="1.0" encoding="utf-8"?>
<!-- Generator: Adobe Illustrator 19.0.0, SVG Export Plug-In . SVG Version: 6.00 Build 0)  -->
<svg version="1.1" id="Layer_1" xmlns="http://www.w3.org/2000/svg" xmlns:xlink="http://www.w3.org/1999/xlink" x="0px" y="0px"
	 viewBox="-866 468.6 92.7 92.7" style="enable-background:new -866 468.6 92.7 92.7;" xml:space="preserve">
<style type="text/css">
	.st0{fill:#FFFFFF;stroke:#595959;stroke-width:2;stroke-miterlimit:10;}
	.st1{fill:#595959;}
</style>
<g id="XMLID_66_">
	<path id="XMLID_68_" class="st0" d="M-796.9,539.7h-45.5c-1.1,0-2-0.9-2-2v-45.5c0-1.1,0.9-2,2-2h45.5c1.1,0,2,0.9,2,2v45.5
		C-794.9,538.8-795.8,539.7-796.9,539.7z"/>
	<path id="XMLID_67_" class="st0" d="M-808.2,528.4h-22.9c-1.1,0-2-0.9-2-2v-22.9c0-1.1,0.9-2,2-2h22.9c1.1,0,2,0.9,2,2v22.9
		C-806.2,527.5-807.1,528.4-808.2,528.4z"/>
</g>
<g id="XMLID_63_">
	<path id="XMLID_65_" class="st1" d="M-811.7,554.1L-811.7,554.1c-0.5,0-0.9-0.4-0.9-0.9v-13.5h1.8v13.5
		C-810.8,553.7-811.2,554.1-811.7,554.1z"/>
	<path id="XMLID_64_" class="st1" d="M-827.6,561.3L-827.6,561.3c-0.5,0-0.9-0.4-0.9-0.9v-20.7h1.8v20.7
		C-826.7,560.9-827.1,561.3-827.6,561.3z"/>
</g>
<g id="XMLID_60_">
	<path id="XMLID_62_" class="st1" d="M-780.5,507L-780.5,507c0,0.5-0.4,0.9-0.9,0.9h-13.5v-1.8h13.5
		C-780.9,506.1-780.5,506.5-780.5,507z"/>
	<path id="XMLID_61_" class="st1" d="M-773.3,522.9L-773.3,522.9c0,0.5-0.4,0.9-0.9,0.9h-20.7V522h20.7
		C-773.7,522-773.3,522.4-773.3,522.9z"/>
</g>
<g id="XMLID_51_">
	<path id="XMLID_53_" class="st1" d="M-858.8,522.9L-858.8,522.9c0-0.5,0.4-0.9,0.9-0.9h13.5v1.8h-13.5
		C-858.4,523.8-858.8,523.4-858.8,522.9z"/>
	<path id="XMLID_52_" class="st1" d="M-866,507L-866,507c0-0.5,0.4-0.9,0.9-0.9h20.7v1.8h-20.7C-865.6,507.9-866,507.5-866,507z"/>
</g>
<g id="XMLID_48_">
	<path id="XMLID_50_" class="st1" d="M-827.6,475.8L-827.6,475.8c0.5,0,0.9,0.4,0.9,0.9v13.5h-1.8v-13.5
		C-828.5,476.2-828.1,475.8-827.6,475.8z"/>
	<path id="XMLID_49_" class="st1" d="M-811.7,468.6L-811.7,468.6c0.5,0,0.9,0.4,0.9,0.9v20.7h-1.8v-20.7
		C-812.6,469-812.2,468.6-811.7,468.6z"/>
</g>
</svg>
