<?xml version="1.0" encoding="utf-8"?>
<!-- Generator: Adobe Illustrator 19.0.0, SVG Export Plug-In . SVG Version: 6.00 Build 0)  -->
<svg version="1.1" id="Layer_1" xmlns="http://www.w3.org/2000/svg" xmlns:xlink="http://www.w3.org/1999/xlink" x="0px" y="0px"
	 viewBox="-884.5 496.7 75.6 65.4" style="enable-background:new -884.5 496.7 75.6 65.4;" xml:space="preserve">
<style type="text/css">
	.st0{fill:#FFFFFF;stroke:#595959;stroke-width:2;stroke-miterlimit:10;}
	.st1{fill:#FFFFFF;stroke:#595959;stroke-width:2;stroke-linecap:square;stroke-miterlimit:10;}
	.st2{fill:none;stroke:#595959;stroke-width:2;stroke-linecap:round;stroke-miterlimit:10;}
</style>
<g id="XMLID_126_">
	<path id="XMLID_133_" class="st0" d="M-815.2,546.1h-63l0,0c0,8.3,6.7,15,15,15h33C-821.9,561.1-815.2,554.4-815.2,546.1
		L-815.2,546.1z"/>
	<path id="XMLID_132_" class="st0" d="M-814.4,542.1H-879c-2.5,0-4.5-2-4.5-4.5l0,0c0-2.5,2-4.5,4.5-4.5h64.6c2.5,0,4.5,2,4.5,4.5
		l0,0C-809.8,540-811.9,542.1-814.4,542.1z"/>
	<path id="XMLID_131_" class="st1" d="M-846.7,497.7c-17.4,0-31.5,14.5-31.5,31.5h63C-815.2,512.2-829.3,497.7-846.7,497.7z"/>
	<line id="XMLID_130_" class="st2" x1="-862.8" y1="515.2" x2="-857.2" y2="518.2"/>
	<line id="XMLID_129_" class="st2" x1="-846.7" y1="516.7" x2="-841.2" y2="513.3"/>
	<line id="XMLID_128_" class="st2" x1="-830.8" y1="513.3" x2="-828.2" y2="518.2"/>
	<line id="XMLID_127_" class="st2" x1="-853.5" y1="510.9" x2="-855.2" y2="507.6"/>
</g>
</svg>
