<?xml version="1.0" encoding="utf-8"?>
<!-- Generator: Adobe Illustrator 19.0.0, SVG Export Plug-In . SVG Version: 6.00 Build 0)  -->
<svg version="1.1" id="Layer_1" xmlns="http://www.w3.org/2000/svg" xmlns:xlink="http://www.w3.org/1999/xlink" x="0px" y="0px"
	 viewBox="-1329 739.6 73 68.8" style="enable-background:new -1329 739.6 73 68.8;" xml:space="preserve">
<style type="text/css">
	.st0{fill:none;stroke:#595959;stroke-width:2;stroke-miterlimit:10;}
	.st1{fill:none;stroke:#595959;stroke-width:2;stroke-linecap:round;stroke-miterlimit:10;}
	.st2{fill:#FFFFFF;stroke:#595959;stroke-width:2;stroke-miterlimit:10;}
	.st3{fill:#FFFFFF;stroke:#595959;stroke-width:2;stroke-linecap:round;stroke-miterlimit:10;}
</style>
<path id="XMLID_121_" class="st0" d="M-1277,767.4"/>
<path id="XMLID_120_" class="st1" d="M-1264,783.4"/>
<path id="XMLID_119_" class="st1" d="M-1290,783.4"/>
<path id="XMLID_118_" class="st2" d="M-1297.9,784.4L-1297.9,784.4h-28.4c-0.8,0-1.3,0.9-0.8,1.5l13.1,20c0.2,0.3,0.5,0.5,0.8,0.5
	h15.3h0.1h34c0.5,0,0.9-0.3,1-0.8l5-20c0.2-0.6-0.3-1.2-1-1.2H-1297.9z"/>
<line id="XMLID_117_" class="st1" x1="-1328" y1="807.4" x2="-1257" y2="807.4"/>
<path id="XMLID_115_" class="st3" d="M-1285.8,740.9l-38.3,35.8c-0.7,0.6-0.2,1.7,0.7,1.7h38.5h24c0.8,0,1.3-0.9,0.8-1.6l-24.2-35.8
	C-1284.6,740.5-1285.4,740.4-1285.8,740.9z"/>
<line id="XMLID_114_" class="st1" x1="-1284" y1="784.1" x2="-1284" y2="741.1"/>
</svg>
