<?xml version="1.0" encoding="utf-8"?>
<!-- Generator: Adobe Illustrator 19.0.0, SVG Export Plug-In . SVG Version: 6.00 Build 0)  -->
<svg version="1.1" id="Layer_1" xmlns="http://www.w3.org/2000/svg" xmlns:xlink="http://www.w3.org/1999/xlink" x="0px" y="0px"
	 viewBox="-890.5 497.5 69 65" style="enable-background:new -890.5 497.5 69 65;" xml:space="preserve">
<style type="text/css">
	.st0{fill:#FFFFFF;stroke:#595959;stroke-width:2;stroke-miterlimit:10;}
	.st1{fill:none;stroke:#595959;stroke-width:2;stroke-linecap:round;stroke-miterlimit:10;}
</style>
<g id="XMLID_150_">
	<polygon id="XMLID_163_" class="st0" points="-824.5,533.5 -844.5,520.6 -844.5,532.2 -863.5,515.1 -863.5,533.5 -865.5,533.5 
		-865.5,527.1 -868.8,498.5 -884.8,498.5 -889.5,527.1 -889.5,561.5 -864.5,561.5 -822.5,561.5 -822.5,533.5 	"/>
	<line id="XMLID_162_" class="st1" x1="-846" y1="550" x2="-846" y2="554"/>
	<line id="XMLID_161_" class="st1" x1="-837" y1="550" x2="-837" y2="554"/>
	<line id="XMLID_160_" class="st1" x1="-828" y1="550" x2="-828" y2="554"/>
	<line id="XMLID_159_" class="st1" x1="-864" y1="550" x2="-864" y2="554"/>
	<line id="XMLID_158_" class="st1" x1="-855" y1="550" x2="-855" y2="554"/>
	<line id="XMLID_157_" class="st1" x1="-846" y1="540" x2="-846" y2="544"/>
	<line id="XMLID_156_" class="st1" x1="-837" y1="540" x2="-837" y2="544"/>
	<line id="XMLID_155_" class="st1" x1="-828" y1="540" x2="-828" y2="544"/>
	<line id="XMLID_154_" class="st1" x1="-864" y1="540" x2="-864" y2="544"/>
	<line id="XMLID_153_" class="st1" x1="-855" y1="540" x2="-855" y2="544"/>
</g>
<line id="XMLID_149_" class="st1" x1="-885.5" y1="529" x2="-885.5" y2="559"/>
<line id="XMLID_148_" class="st1" x1="-883" y1="507.9" x2="-884.5" y2="520.4"/>
</svg>
