<?xml version="1.0" encoding="utf-8"?>
<!-- Generator: Adobe Illustrator 19.0.0, SVG Export Plug-In . SVG Version: 6.00 Build 0)  -->
<svg version="1.1" id="Layer_1" xmlns="http://www.w3.org/2000/svg" xmlns:xlink="http://www.w3.org/1999/xlink" x="0px" y="0px"
	 viewBox="-924.5 474.1 35 87.7" style="enable-background:new -924.5 474.1 35 87.7;" xml:space="preserve">
<style type="text/css">
	.st0{fill:#FFFFFF;stroke:#595959;stroke-width:2;stroke-miterlimit:10;}
	.st1{fill:none;stroke:#595959;stroke-width:2;stroke-linecap:round;stroke-miterlimit:10;}
</style>
<g id="XMLID_35_">
	<g id="XMLID_39_">
		<path id="XMLID_41_" class="st0" d="M-899.5,479.8h-14.3c-0.9,0-1.7,0.6-1.9,1.4l-7.7,24.8c-0.1,0.2-0.1,0.4-0.1,0.6v52.2
			c0,1.1,0.9,2,2,2h29c1.1,0,2-0.9,2-2v-52.3c0-0.2,0-0.4-0.1-0.5l-7-24.8C-897.8,480.4-898.6,479.8-899.5,479.8z"/>
		<path id="XMLID_40_" class="st0" d="M-897,479.8h-20c-0.6,0-1-0.4-1-1v-2.7c0-0.6,0.4-1,1-1h20c0.6,0,1,0.4,1,1v2.7
			C-896,479.3-896.5,479.8-897,479.8z"/>
	</g>
	<g id="XMLID_36_">
		<line id="XMLID_38_" class="st1" x1="-919.6" y1="512.6" x2="-893.6" y2="512.6"/>
		<line id="XMLID_37_" class="st1" x1="-919.6" y1="545.6" x2="-893.6" y2="545.6"/>
	</g>
</g>
</svg>
